<svg xmlns="http://www.w3.org/2000/svg" xmlns:xlink="http://www.w3.org/1999/xlink" version="1.1" x="0px" y="0px" viewBox="0 0 30 37.5" xml:space="preserve"><g transform="translate(-390 -200)"><g xmlns="http://www.w3.org/2000/svg" xmlns:xlink="http://www.w3.org/1999/xlink"><path d="M409.96,225.94c0.043-0.382,0.143-0.762,0.306-1.127c0.32-0.732,0.94-1.376,1.734-1.814    c-0.891,0.118-1.816,0.507-2.541,1.223c-0.36,0.354-0.672,0.77-0.917,1.229c-0.243,0.476-0.436,0.919-0.542,1.54l1,0.008h-1    c-0.068-0.566-0.047-1.264,0.032-1.901c0.083-0.652,0.23-1.303,0.468-1.925c0.459-1.248,1.306-2.392,2.5-3.174    c-1.339,0.476-2.549,1.452-3.385,2.707c-0.426,0.623-0.765,1.307-1.035,2.019c-0.267,0.726-0.473,1.427-0.58,2.268l1.005,0.006    H406v-0.006V220h-2v6.994V227h-1.005l1.005-0.006c-0.107-0.842-0.313-1.543-0.58-2.268c-0.27-0.712-0.609-1.396-1.035-2.019    c-0.836-1.255-2.046-2.231-3.385-2.707c1.194,0.782,2.041,1.926,2.501,3.174c0.236,0.622,0.384,1.273,0.467,1.925    c0.079,0.638,0.1,1.335,0.032,1.901h-1l1-0.008c-0.106-0.621-0.298-1.064-0.542-1.54c-0.245-0.459-0.557-0.876-0.917-1.229    c-0.725-0.716-1.65-1.105-2.541-1.223c0.794,0.438,1.414,1.082,1.734,1.814c0.162,0.365,0.263,0.745,0.306,1.127    c0.041,0.362,0.035,0.792-0.039,1.06H397v1h16v-1h-3.001C409.926,226.733,409.92,226.303,409.96,225.94z"/><path d="M402,205c0,1.657,1.343,3,3,3s3-1.343,3-3c0-0.354-0.069-0.688-0.184-1h-5.633C402.069,204.313,402,204.646,402,205z"/><polygon points="403,200 403,202 400,202 400,203 410,203 410,202 407,202 407,200   "/><polygon points="416,209 394,209 394.25,210 392,210 392,211 394.5,211 395,213 400,213 400,219 410,219 410,213 415,213     415.5,211 418,211 418,210 415.75,210   "/></g></g><text x="0" y="45" fill="#000000" font-size="5px" font-weight="bold" font-family="'Helvetica Neue', Helvetica, Arial-Unicode, Arial, Sans-serif">Created by Hea Poh Lin</text><text x="0" y="50" fill="#000000" font-size="5px" font-weight="bold" font-family="'Helvetica Neue', Helvetica, Arial-Unicode, Arial, Sans-serif">from the Noun Project</text></svg>